<?xml version="1.0" encoding="utf-8" ?>	<!-- Generator: Assembly 1.8 - http://assemblyapp.co -->	<svg version="1.1" xmlns="http://www.w3.org/2000/svg" xmlns:xlink="http://www.w3.org/1999/xlink" width="2048.00" height="2048.00" viewBox="0 0 2048.0 2048.0">		<rect x="0" y="0" width="2048.00" height="2048.00" fill="none" />		<g id="document" transform="matrix(1,0,0,1,1024.0,1024.0)">			<g>				<path d="M2.04002,-915 C-503.04,-915 -912.96,-505.08 -912.96,-4.24579e-06 C-912.96,505.08 -503.04,915 2.04002,915 L917.04,915 L917.04,-4.24579e-06 C917.04,-505.08 507.12,-915 2.04002,-915 Z M-546.96,-4.24579e-06 C-546.96,-303.78 -301.74,-549 2.04002,-549 C305.82,-549 551.04,-303.78 551.04,-4.24579e-06 C551.04,303.78 305.82,549 2.04002,549 C-301.74,549 -546.96,303.78 -546.96,-4.24579e-06 Z " fill="#f3804b" fill-opacity="1.00" />				<path d="M320.156,189.869 C424.964,8.33676 362.694,-224.055 181.162,-328.863 C-0.370295,-433.671 -232.762,-371.402 -337.57,-189.869 C-442.378,-8.33677 -380.109,224.055 -198.576,328.863 C-17.0438,433.671 215.348,371.401 320.156,189.869 Z M105.214,-197.318 C214.397,-134.281 251.647,4.73896 188.611,113.921 C125.574,223.104 -13.446,260.354 -122.629,197.318 C-231.811,134.281 -269.061,-4.73897 -206.025,-113.921 C-142.988,-223.104 -3.96809,-260.354 105.214,-197.318 Z " fill="#ffa539" fill-opacity="1.00" />				<path d="M917.04,915 L917.04,365.174 C613.746,365.174 367.214,611.706 367.214,915 L917.04,915 Z " fill="#ffa539" fill-opacity="1.00" />			</g>		</g>	</svg>